<svg width="18" height="19" viewBox="0 0 18 19" fill="none" xmlns="http://www.w3.org/2000/svg">
<path d="M9 0.248535C6.55762 0.248535 6.2505 0.259785 5.29088 0.302535C4.33125 0.347535 3.67763 0.498285 3.105 0.721035C2.50436 0.946957 1.9603 1.30134 1.51088 1.75941C1.05309 2.20907 0.698746 2.75306 0.4725 3.35354C0.24975 3.92504 0.097875 4.57978 0.054 5.53604C0.01125 6.49791 0 6.80391 0 9.24966C0 11.6932 0.01125 11.9992 0.054 12.9588C0.099 13.9173 0.24975 14.5709 0.4725 15.1435C0.703125 15.7353 1.01025 16.237 1.51088 16.7377C2.01038 17.2383 2.51213 17.5465 3.10388 17.776C3.67763 17.9988 4.33013 18.1507 5.28863 18.1945C6.24938 18.2373 6.55538 18.2485 9 18.2485C11.4446 18.2485 11.7495 18.2373 12.7103 18.1945C13.6676 18.1495 14.3235 17.9988 14.8961 17.776C15.4964 17.55 16.04 17.1956 16.4891 16.7377C16.9897 16.237 17.2969 15.7353 17.5275 15.1435C17.7491 14.5709 17.901 13.9173 17.946 12.9588C17.9888 11.9992 18 11.6932 18 9.24854C18 6.80391 17.9888 6.49791 17.946 5.53716C17.901 4.57979 17.7491 3.92504 17.5275 3.35354C17.3013 2.75304 16.9469 2.20905 16.4891 1.75941C16.0398 1.30117 15.4957 0.946761 14.895 0.721035C14.3213 0.498285 13.6665 0.34641 12.7091 0.302535C11.7484 0.259785 11.4435 0.248535 8.99775 0.248535H9.00113H9ZM8.19338 1.87079H9.00113C11.4041 1.87079 11.6888 1.87866 12.6371 1.92254C13.5146 1.96191 13.9916 2.10929 14.3089 2.23191C14.7285 2.39504 15.0289 2.59079 15.3439 2.90579C15.6589 3.22079 15.8535 3.52004 16.0166 3.94079C16.1404 4.25691 16.2866 4.73391 16.326 5.61141C16.3699 6.55979 16.3789 6.84441 16.3789 9.24629C16.3789 11.6482 16.3699 11.9339 16.326 12.8823C16.2866 13.7598 16.1393 14.2357 16.0166 14.5529C15.8723 14.9437 15.642 15.297 15.3427 15.5868C15.0278 15.9018 14.7285 16.0964 14.3078 16.2595C13.9928 16.3833 13.5157 16.5295 12.6371 16.57C11.6888 16.6128 11.4041 16.6229 9.00113 16.6229C6.59813 16.6229 6.31238 16.6128 5.364 16.57C4.4865 16.5295 4.01062 16.3833 3.69338 16.2595C3.30244 16.1154 2.94877 15.8856 2.65838 15.5868C2.35884 15.2966 2.12819 14.9429 1.98338 14.5518C1.86075 14.2357 1.71338 13.7587 1.674 12.8812C1.63125 11.9328 1.62225 11.6482 1.62225 9.24403C1.62225 6.84103 1.63125 6.55754 1.674 5.60916C1.7145 4.73166 1.86075 4.25466 1.9845 3.93741C2.14763 3.51779 2.34337 3.21741 2.65838 2.90241C2.97338 2.58741 3.27262 2.39279 3.69338 2.22966C4.01062 2.10591 4.4865 1.95966 5.364 1.91916C6.19425 1.88091 6.516 1.86966 8.19338 1.86854V1.87079ZM13.8049 3.36479C13.663 3.36479 13.5226 3.39272 13.3916 3.447C13.2605 3.50127 13.1415 3.58082 13.0412 3.68111C12.9409 3.7814 12.8614 3.90046 12.8071 4.03149C12.7528 4.16252 12.7249 4.30296 12.7249 4.44479C12.7249 4.58661 12.7528 4.72705 12.8071 4.85808C12.8614 4.98911 12.9409 5.10817 13.0412 5.20846C13.1415 5.30875 13.2605 5.3883 13.3916 5.44258C13.5226 5.49685 13.663 5.52479 13.8049 5.52479C14.0913 5.52479 14.366 5.411 14.5686 5.20846C14.7711 5.00592 14.8849 4.73122 14.8849 4.44479C14.8849 4.15835 14.7711 3.88365 14.5686 3.68111C14.366 3.47857 14.0913 3.36479 13.8049 3.36479ZM9.00113 4.62704C8.38808 4.61747 7.77926 4.72996 7.2101 4.95794C6.64094 5.18593 6.12283 5.52487 5.68592 5.95501C5.24901 6.38516 4.90203 6.89792 4.6652 7.46345C4.42836 8.02898 4.30639 8.63598 4.30639 9.2491C4.30639 9.86222 4.42836 10.4692 4.6652 11.0347C4.90203 11.6003 5.24901 12.113 5.68592 12.5432C6.12283 12.9733 6.64094 13.3123 7.2101 13.5403C7.77926 13.7682 8.38808 13.8807 9.00113 13.8712C10.2145 13.8522 11.3717 13.3569 12.2231 12.4922C13.0745 11.6274 13.5516 10.4626 13.5516 9.2491C13.5516 8.03559 13.0745 6.87075 12.2231 6.006C11.3717 5.14126 10.2145 4.64597 9.00113 4.62704ZM9.00113 6.24816C9.79687 6.24816 10.56 6.56427 11.1227 7.12695C11.6854 7.68963 12.0015 8.45279 12.0015 9.24854C12.0015 10.0443 11.6854 10.8074 11.1227 11.3701C10.56 11.9328 9.79687 12.2489 9.00113 12.2489C8.20538 12.2489 7.44222 11.9328 6.87954 11.3701C6.31686 10.8074 6.00075 10.0443 6.00075 9.24854C6.00075 8.45279 6.31686 7.68963 6.87954 7.12695C7.44222 6.56427 8.20538 6.24816 9.00113 6.24816Z" fill="white"/>
</svg>
