<svg width="20" height="16" viewBox="0 0 20 16" fill="none" xmlns="http://www.w3.org/2000/svg">
<path d="M8 11.4628L13.19 8.24854L8 5.03425V11.4628ZM19.56 3.07354C19.69 3.57711 19.78 4.25211 19.84 5.10925C19.91 5.96639 19.94 6.70568 19.94 7.34853L20 8.24854C20 10.595 19.84 12.32 19.56 13.4235C19.31 14.3878 18.73 15.0092 17.83 15.2771C17.36 15.4164 16.5 15.5128 15.18 15.5771C13.88 15.6521 12.69 15.6842 11.59 15.6842L10 15.7485C5.81 15.7485 3.2 15.5771 2.17 15.2771C1.27 15.0092 0.69 14.3878 0.44 13.4235C0.31 12.92 0.22 12.245 0.16 11.3878C0.0900001 10.5307 0.0599999 9.79139 0.0599999 9.14853L0 8.24854C0 5.90211 0.16 4.17711 0.44 3.07354C0.69 2.10925 1.27 1.48782 2.17 1.21996C2.64 1.08068 3.5 0.984249 4.82 0.919964C6.12 0.844964 7.31 0.812821 8.41 0.812821L10 0.748535C14.19 0.748535 16.8 0.919964 17.83 1.21996C18.73 1.48782 19.31 2.10925 19.56 3.07354Z" fill="white"/>
</svg>
